<?xml version="1.0" standalone="no"?>
<!DOCTYPE svg PUBLIC "-//W3C//DTD SVG 20010904//EN"
 "http://www.w3.org/TR/2001/REC-SVG-20010904/DTD/svg10.dtd">
<svg version="1.0" xmlns="http://www.w3.org/2000/svg"
 width="512.000000pt" height="512.000000pt" viewBox="0 0 512.000000 512.000000"
 preserveAspectRatio="xMidYMid meet">

<g transform="translate(0.000000,512.000000) scale(0.100000,-0.100000)"
fill="#000000" stroke="none">
<path d="M3515 3682 c-27 -10 -610 -278 -1295 -597 -1106 -515 -1250 -585
-1291 -625 -58 -56 -69 -91 -43 -139 33 -62 100 -91 577 -250 248 -82 454
-156 458 -163 5 -7 76 -216 159 -464 93 -278 162 -469 180 -498 35 -54 84 -82
126 -72 16 4 49 29 74 55 40 41 110 187 628 1298 321 688 590 1273 598 1299
22 74 18 111 -15 145 -35 35 -79 38 -156 11z"/>
</g>
</svg>
