<?xml version="1.0" standalone="no"?>
<!DOCTYPE svg PUBLIC "-//W3C//DTD SVG 20010904//EN"
 "http://www.w3.org/TR/2001/REC-SVG-20010904/DTD/svg10.dtd">
<svg version="1.0" xmlns="http://www.w3.org/2000/svg"
 width="582.000000pt" height="582.000000pt" viewBox="0 0 582.000000 582.000000"
 preserveAspectRatio="xMidYMid meet">

<g transform="translate(0.000000,582.000000) scale(0.100000,-0.100000)"
fill="#000000" stroke="none">
<path d="M2874 5487 c-12 -7 -136 -122 -275 -257 -227 -220 -424 -408 -804
-769 -483 -461 -695 -665 -1000 -963 l-151 -148 -187 0 c-204 0 -240 -7 -270
-53 -21 -32 -22 -98 -2 -136 31 -62 25 -61 663 -61 l581 0 -2 -462 c-1 -255
-1 -770 0 -1146 l3 -684 29 -29 29 -29 1073 0 1073 0 160 -160 161 -160 -1432
0 -1433 0 -2 1214 -3 1214 -24 26 c-49 52 -133 52 -182 0 l-24 -26 -3 -1276
c-2 -886 0 -1288 8 -1314 6 -20 22 -46 37 -57 l26 -21 1984 0 c2180 0 2037 -4
2062 58 8 19 11 392 9 1320 l-3 1294 -33 29 c-64 57 -170 30 -192 -49 -6 -24
-10 -393 -10 -1072 l0 -1035 -78 80 c-43 44 -118 123 -167 175 l-90 95 3 1008
2 1007 553 0 c303 1 572 5 596 9 25 5 54 20 70 35 22 22 26 35 26 82 0 51 -3
58 -37 90 l-38 34 -185 0 -185 0 -180 176 -180 177 0 493 0 494 -29 32 -29 33
-286 0 -286 0 -27 -28 -28 -27 -3 -175 c-2 -96 -6 -175 -10 -175 -3 0 -74 66
-157 148 -82 81 -190 185 -240 232 -118 111 -249 236 -538 515 -268 258 -289
273 -343 242z m219 -459 c95 -89 215 -203 267 -253 137 -131 282 -268 296
-280 6 -5 56 -53 110 -105 55 -52 266 -252 469 -445 204 -192 426 -404 495
-472 l125 -123 -237 0 c-130 0 -238 3 -240 8 -2 4 -53 54 -113 112 -61 58
-229 220 -375 360 -146 140 -321 309 -390 375 -68 66 -208 202 -310 302 -102
100 -197 191 -211 202 -36 28 -73 35 -102 19 -14 -7 -150 -134 -303 -283 -153
-148 -416 -403 -584 -566 -168 -162 -359 -348 -425 -412 l-120 -116 -230 -1
-230 0 96 93 c53 50 256 245 450 431 580 557 741 711 749 716 9 6 364 345 515
492 60 59 114 108 118 108 5 0 86 -73 180 -162z m1517 -810 l0 -292 -62 61
c-35 34 -82 78 -105 99 l-43 37 0 194 0 193 105 0 105 0 0 -292z m-1611 129
c182 -175 617 -594 871 -837 146 -140 273 -265 283 -277 16 -20 17 -90 17
-1148 l0 -1127 263 -262 262 -261 -198 -3 -198 -2 -732 735 c-403 405 -734
741 -736 747 -2 7 32 9 110 6 215 -9 388 15 515 72 212 95 379 298 439 535 26
98 26 276 1 375 -71 286 -281 505 -568 592 -71 21 -88 22 -670 26 -529 3 -600
1 -627 -13 -65 -33 -61 39 -61 -1202 1 -981 3 -1131 16 -1159 34 -72 142 -85
197 -24 l27 30 0 1060 0 1060 491 0 c546 0 555 -1 681 -67 82 -43 185 -148
226 -231 89 -176 80 -397 -21 -554 -65 -101 -171 -188 -269 -221 -90 -31 -176
-37 -540 -37 l-366 0 -31 -26 c-26 -22 -31 -33 -31 -72 0 -45 2 -48 77 -117
111 -101 953 -938 953 -947 0 -4 -385 -8 -855 -8 l-855 0 0 1119 0 1118 343
334 c188 184 392 381 452 439 61 58 184 178 275 267 91 90 167 163 169 163 3
0 43 -37 90 -83z"/>
</g>
</svg>
