<?xml version="1.0" encoding="utf-8"?>
<!-- Generator: Adobe Illustrator 22.1.0, SVG Export Plug-In . SVG Version: 6.00 Build 0)  -->
<svg version="1.1" id="Layer_1" xmlns="http://www.w3.org/2000/svg" xmlns:xlink="http://www.w3.org/1999/xlink" x="0px" y="0px"
	 viewBox="0 0 512 512" style="enable-background:new 0 0 512 512;" xml:space="preserve">
<g>
	<path d="M227.9,309.6v137.7l19.4,29c4.2,6.3,13.4,6.3,17.6,0l19.3-29V309.6c-9.1,1.7-18.5,2.7-28.1,2.7S237,311.3,227.9,309.6z
		 M256,31c-69.9,0-126.6,56.7-126.6,126.6S186.1,284.1,256,284.1s126.6-56.7,126.6-126.6S325.9,31,256,31z M256,97.8
		c-33,0-59.8,26.8-59.8,59.8c0,5.8-4.7,10.5-10.5,10.5s-10.5-4.7-10.5-10.5c0-44.6,36.3-80.9,80.9-80.9c5.8,0,10.5,4.7,10.5,10.5
		C266.5,93.1,261.8,97.8,256,97.8z"/>
</g>
</svg>
